<svg width="56" height="50" viewBox="0 0 56 50" fill="none" xmlns="http://www.w3.org/2000/svg">
<path d="M11.1171 12.4145V3.20395C16.1525 3.16447 20.1485 2.69737 20.1485 2.13158C20.1485 1.56579 16.1525 1.11184 11.1171 1.07895V0H9.86005V1.07895C4.81766 1.11842 0.828693 1.58553 0.828693 2.15789C0.828693 2.73026 4.81766 3.19737 9.86005 3.23026V12.3224L1.02533 11.6645V27.6053L0.154502 27.5461L0 29.5197L10.4851 30.2237V45.9342L5.62528 48.5658V50L6.40482 49.5855V50L11.4332 47.3092L16.6581 49.9803V49.5855L17.4377 49.9803V48.5461L12.7183 46.1316V30.3421L13.4206 30.3882C13.5252 27.9421 14.2973 25.562 15.6632 23.475C17.0292 21.388 18.9433 19.6639 21.223 18.4671V13.1316L11.1171 12.4145ZM2.65463 27.3421C2.65463 27.4293 2.61763 27.513 2.55178 27.5747C2.48593 27.6364 2.39661 27.6711 2.30349 27.6711C2.21036 27.6711 2.12104 27.6364 2.05519 27.5747C1.98934 27.513 1.95234 27.4293 1.95234 27.3421V12.8684C1.95234 12.7812 1.98934 12.6975 2.05519 12.6358C2.12104 12.5741 2.21036 12.5395 2.30349 12.5395C2.39661 12.5395 2.48593 12.5741 2.55178 12.6358C2.61763 12.6975 2.65463 12.7812 2.65463 12.8684V27.3421ZM10.3797 2.34211C8.27289 2.34211 6.51718 2.19737 6.51718 2.01316C6.51718 1.82895 8.2448 1.68421 10.3797 1.68421C12.5147 1.68421 14.2423 1.82895 14.2423 2.01316C14.2423 2.19737 12.5147 2.34211 10.3797 2.34211ZM47.2074 30.2171L56 29.5592L55.8455 27.5855L54.9747 27.6053V11.6974L41.6313 12.7237L41.4066 12.8618L41.3153 12.7434L36.308 13.1316V18.6053C38.5427 19.8153 40.4136 21.536 41.7461 23.6069C43.0786 25.6777 43.8292 28.0312 43.9278 30.4474L45.7818 30.3289V45.4605L40.915 48.0921V49.5329L46.2874 46.6513L51.9057 49.5329V48.0263L47.1934 45.6184L47.2074 30.2171ZM53.5701 12.5395C53.5701 12.4522 53.6071 12.3686 53.6729 12.3069C53.7388 12.2452 53.8281 12.2105 53.9212 12.2105C54.0144 12.2105 54.1037 12.2452 54.1695 12.3069C54.2354 12.3686 54.2724 12.4522 54.2724 12.5395V27.0132C54.2724 27.1004 54.2354 27.1841 54.1695 27.2458C54.1037 27.3074 54.0144 27.3421 53.9212 27.3421C53.8281 27.3421 53.7388 27.3074 53.6729 27.2458C53.6071 27.1841 53.5701 27.1004 53.5701 27.0132V12.5395ZM42.4951 31.1974C42.4964 28.887 41.8459 26.6173 40.6097 24.6181C39.3734 22.619 37.5952 20.9613 35.4552 19.813C33.3151 18.6647 30.8891 18.0665 28.4229 18.079C25.9566 18.0915 23.5377 18.7143 21.411 19.8842C19.2843 21.0542 17.5254 22.7298 16.3123 24.7413C15.0992 26.7529 14.4751 29.0291 14.503 31.3393C14.531 33.6496 15.2101 35.9119 16.4715 37.8972C17.733 39.8825 19.532 41.5203 21.6865 42.6447V49.7829H23.7933V43.5329C26.9581 44.5966 30.426 44.5569 33.5621 43.4211V49.7829H35.6689V42.6382H35.3108C37.4876 41.5036 39.3014 39.8448 40.5644 37.8334C41.8275 35.822 42.4941 33.531 42.4951 31.1974ZM28.4986 36.4145C27.3972 36.4145 26.3204 36.1085 25.4046 35.5352C24.4888 34.962 23.775 34.1472 23.3534 33.1939C22.9319 32.2406 22.8216 31.1916 23.0365 30.1796C23.2514 29.1675 23.7818 28.2379 24.5607 27.5083C25.3395 26.7787 26.3318 26.2818 27.4121 26.0805C28.4924 25.8792 29.6122 25.9825 30.6298 26.3774C31.6474 26.7723 32.5172 27.441 33.1292 28.2989C33.7411 29.1568 34.0677 30.1655 34.0677 31.1974C34.0659 32.5805 33.4785 33.9065 32.4345 34.8845C31.3905 35.8625 29.9751 36.4127 28.4986 36.4145ZM55.7893 9.17763L44.4966 10.8947L54.5182 4.51316L53.8159 3.53289L41.5119 11.3553L40.1495 11.5526L40.3531 12.7237L41.224 12.5921L41.3223 12.7303H41.6383L42.0035 12.4934L56 10.3553L55.7893 9.17763Z" fill="black"/>
</svg>
