<svg width="50" height="50" viewBox="0 0 50 50" fill="none" xmlns="http://www.w3.org/2000/svg">
<path d="M9.92601 12.4145V3.20395C14.4219 3.16447 17.9897 2.69737 17.9897 2.13158C17.9897 1.56579 14.4219 1.11184 9.92601 1.07895V0H8.80361V1.07895C4.30148 1.11842 0.739904 1.58553 0.739904 2.15789C0.739904 2.73026 4.30148 3.19737 8.80361 3.23026V12.3224L0.915475 11.6645V27.6053L0.137948 27.5461L0 29.5197L9.36168 30.2237V45.9342L5.02257 48.5658V50L5.71859 49.5855V50L10.2082 47.3092L14.8733 49.9803V49.5855L15.5693 49.9803V48.5461L11.3557 46.1316V30.3421L11.9827 30.3882C12.0761 27.9421 12.7655 25.562 13.985 23.475C15.2046 21.388 16.9137 19.6639 18.9491 18.4671V13.1316L9.92601 12.4145ZM2.3702 27.3421C2.3702 27.4293 2.33717 27.513 2.27838 27.5747C2.21958 27.6364 2.13983 27.6711 2.05668 27.6711C1.97353 27.6711 1.89379 27.6364 1.83499 27.5747C1.7762 27.513 1.74317 27.4293 1.74317 27.3421V12.8684C1.74317 12.7812 1.7762 12.6975 1.83499 12.6358C1.89379 12.5741 1.97353 12.5395 2.05668 12.5395C2.13983 12.5395 2.21958 12.5741 2.27838 12.6358C2.33717 12.6975 2.3702 12.7812 2.3702 12.8684V27.3421ZM9.26762 2.34211C7.38651 2.34211 5.81891 2.19737 5.81891 2.01316C5.81891 1.82895 7.36142 1.68421 9.26762 1.68421C11.1738 1.68421 12.7163 1.82895 12.7163 2.01316C12.7163 2.19737 11.1738 2.34211 9.26762 2.34211ZM42.1495 30.2171L50 29.5592L49.8621 27.5855L49.0845 27.6053V11.6974L37.1708 12.7237L36.9702 12.8618L36.8886 12.7434L32.4179 13.1316V18.6053C34.4131 19.8153 36.0836 21.536 37.2733 23.6069C38.463 25.6777 39.1332 28.0312 39.2212 30.4474L40.8766 30.3289V45.4605L36.5312 48.0921V49.5329L41.3281 46.6513L46.3444 49.5329V48.0263L42.1369 45.6184L42.1495 30.2171ZM47.8304 12.5395C47.8304 12.4522 47.8635 12.3686 47.9223 12.3069C47.9811 12.2452 48.0608 12.2105 48.144 12.2105C48.2271 12.2105 48.3069 12.2452 48.3657 12.3069C48.4245 12.3686 48.4575 12.4522 48.4575 12.5395V27.0132C48.4575 27.1004 48.4245 27.1841 48.3657 27.2458C48.3069 27.3074 48.2271 27.3421 48.144 27.3421C48.0608 27.3421 47.9811 27.3074 47.9223 27.2458C47.8635 27.1841 47.8304 27.1004 47.8304 27.0132V12.5395ZM37.9421 31.1974C37.9432 28.887 37.3624 26.6173 36.2586 24.6181C35.1548 22.619 33.5672 20.9613 31.6564 19.813C29.7456 18.6647 27.5796 18.0665 25.3776 18.079C23.1756 18.0915 21.0158 18.7143 19.117 19.8842C17.2182 21.0542 15.6477 22.7298 14.5646 24.7413C13.4815 26.7529 12.9242 29.0291 12.9491 31.3393C12.9741 33.6496 13.5804 35.9119 14.7067 37.8972C15.833 39.8825 17.4393 41.5203 19.3629 42.6447V49.7829H21.244V43.5329C24.0697 44.5966 27.1661 44.5569 29.9661 43.4211V49.7829H31.8473V42.6382H31.5275C33.4711 41.5036 35.0905 39.8448 36.2182 37.8334C37.346 35.822 37.9411 33.531 37.9421 31.1974ZM25.4452 36.4145C24.4617 36.4145 23.5004 36.1085 22.6827 35.5352C21.865 34.962 21.2276 34.1472 20.8513 33.1939C20.4749 32.2406 20.3765 31.1916 20.5683 30.1796C20.7602 29.1675 21.2338 28.2379 21.9292 27.5083C22.6246 26.7787 23.5106 26.2818 24.4751 26.0805C25.4397 25.8792 26.4395 25.9825 27.3481 26.3774C28.2566 26.7723 29.0332 27.441 29.5796 28.2989C30.126 29.1568 30.4176 30.1655 30.4176 31.1974C30.4159 32.5805 29.8915 33.9065 28.9594 34.8845C28.0272 35.8625 26.7635 36.4127 25.4452 36.4145ZM49.8119 9.17763L39.7291 10.8947L48.6769 4.51316L48.0499 3.53289L37.0642 11.3553L35.8478 11.5526L36.0296 12.7237L36.8071 12.5921L36.8949 12.7303H37.1771L37.5031 12.4934L50 10.3553L49.8119 9.17763Z" fill="black"/>
</svg>
