<svg width="50" height="50" viewBox="0 0 50 50" fill="none" xmlns="http://www.w3.org/2000/svg">
<path d="M34.0604 9.5701C34.1677 9.6954 34.3561 9.7103 34.4815 9.6031C34.6069 9.496 34.6216 9.3076 34.5145 9.182L34.3817 9.0266C34.2745 8.9012 34.0862 8.8865 33.9607 8.9936C33.8352 9.1007 33.8205 9.2891 33.9276 9.4146L34.0604 9.5701ZM33.14 10.3565C33.2471 10.4818 33.4355 10.4967 33.561 10.3896C33.6863 10.2824 33.7011 10.094 33.594 9.9686L33.4611 9.8131C33.354 9.6877 33.1656 9.673 33.0401 9.78C32.9147 9.8872 32.8999 10.0757 33.0071 10.201L33.14 10.3565ZM32.2193 11.1429C32.3265 11.2683 32.515 11.2832 32.6404 11.176C32.7656 11.069 32.7805 10.8804 32.6734 10.755L32.5405 10.5995C32.4334 10.474 32.245 10.4592 32.1195 10.5664C31.994 10.6736 31.9794 10.8621 32.0865 10.9875L32.2193 11.1429ZM37.5597 12.746C37.4527 12.6207 37.2642 12.6058 37.1389 12.713C37.0134 12.82 36.9986 13.0085 37.1058 13.134L37.2387 13.2894C37.3458 13.4149 37.5342 13.4296 37.6597 13.3225C37.7849 13.2154 37.7998 13.027 37.6927 12.9015L37.5597 12.746ZM36.6392 13.5326C36.5321 13.4072 36.3436 13.3924 36.2182 13.4995C36.093 13.6067 36.078 13.7952 36.1852 13.9206L36.318 14.0761C36.4251 14.2014 36.6137 14.2162 36.739 14.1091C36.8644 14.002 36.8792 13.8134 36.7721 13.6881L36.6392 13.5326ZM35.7187 14.3191C35.6116 14.1937 35.423 14.1789 35.2976 14.286C35.1723 14.3932 35.1575 14.5818 35.2646 14.7071L35.3975 14.8626C35.5046 14.9879 35.6932 15.0027 35.8184 14.8956C35.9438 14.7886 35.9586 14.6 35.8515 14.4746L35.7187 14.3191Z" fill="black"/>
<path d="M35.7625 8.9928C34.6896 10.4179 33.3126 11.5882 31.7568 12.4153C31.8802 12.5598 31.9953 12.6944 32.1015 12.8188L25.1766 18.2807C24.1705 17.151 22.4409 17.0269 21.2854 18.0141C20.2852 18.8686 18.9338 20.0682 16.1255 20.8372C14.7788 21.2077 13.6287 22.02 13.0791 23.2747C12.1519 25.3995 13.5717 27.9983 14.6708 29.2905C17.4123 32.592 21.3899 33.0082 23.1008 29.0916C24.2222 26.5142 25.77 25.2875 26.77 24.4329C27.925 23.4461 28.0726 21.7196 27.1151 20.5495L33.5911 14.5616L33.6647 14.6478L33.9358 14.9652C35.0004 13.5506 36.3757 12.3748 37.9415 11.5426C37.478 11.0007 36.1118 9.4017 35.7625 8.9928ZM19.2639 28.5789C19.1296 28.6937 18.9217 28.6802 18.8044 28.5428L16.0392 25.3065C15.9218 25.1692 15.9409 24.9618 16.0753 24.847C16.2127 24.7296 16.4175 24.7457 16.5348 24.8831L19.3002 28.1193C19.4173 28.2566 19.4012 28.4616 19.2639 28.5789ZM23.2545 25.04C22.2453 25.9022 20.7284 25.7832 19.8661 24.7741C19.0013 23.762 19.1204 22.245 20.1296 21.3827C21.1388 20.5205 22.6587 20.6372 23.5235 21.6492C24.3857 22.6583 24.2638 24.1779 23.2545 25.04Z" fill="black"/>
<path d="M20.4773 21.7895C19.689 22.463 19.596 23.6478 20.2694 24.436C20.943 25.2243 22.1277 25.3172 22.9159 24.6437C23.7041 23.9704 23.7971 22.7855 23.1237 21.9973C22.4502 21.2092 21.2655 21.1163 20.4773 21.7895ZM22.6277 24.3065C22.0246 24.8217 21.1222 24.7509 20.6069 24.1478C20.0916 23.5448 20.1599 22.6393 20.763 22.124C21.3661 21.6087 22.274 21.68 22.7894 22.2831C23.3047 22.8862 23.2309 23.7911 22.6277 24.3065ZM27.42 25.1901C26.42 26.0516 25.0332 27.158 24.02 29.4901C23.0171 31.7695 20.9611 33.2795 18.5 32.8401V46.5001C18.5 47.8801 19.62 49.0001 21 49.0001C22.38 49.0001 23.5 47.8801 23.5 46.5001V30.5601H26.5V46.5001C26.5 47.8801 27.62 49.0001 29 49.0001C30.38 49.0001 31.5 47.8801 31.5 46.5001V17.8601L28.4 20.7301C29.08 22.2301 28.72 24.0801 27.42 25.1901ZM18.5 18.8101C19.4202 18.3109 19.8715 17.9026 20.64 17.2501C21.3201 16.6701 22.19 16.3501 23.09 16.3501C23.85 16.3501 24.58 16.5701 25.2 16.9901L30.66 12.6801L30.19 12.1201L31.2599 11.5501C31.1799 11.4501 31.13 11.3401 31.0899 11.2201L28.1599 12.5601H21.8399L15.9799 9.89009V3.50009C15.9799 2.12009 14.8599 1.00009 13.4799 1.00009C12.0999 1.00009 10.9799 2.12009 10.9799 3.50009V11.5001C10.9799 12.4801 11.5499 13.3701 12.4399 13.7701L18.4999 16.5301L18.5 18.8101ZM36.52 1.00009C35.14 1.00009 34.02 2.12009 34.02 3.50009V7.93009C34.06 7.92009 34.11 7.92009 34.15 7.92009C34.49 7.92009 34.8 8.05009 35.04 8.29009L35.71 7.40009L39.02 11.2701V3.50009C39.02 2.12009 37.9 1.00009 36.52 1.00009Z" fill="black"/>
<path d="M24.998 10.56C27.4833 10.56 29.498 8.54528 29.498 6.06C29.498 3.57472 27.4833 1.56 24.998 1.56C22.5127 1.56 20.498 3.57472 20.498 6.06C20.498 8.54528 22.5127 10.56 24.998 10.56Z" fill="black"/>
</svg>
