<svg width="50" height="50" viewBox="0 0 50 50" fill="none" xmlns="http://www.w3.org/2000/svg">
<g clip-path="url(#clip0_4_49)">
<path d="M27.2135 6.38021C27.2094 6.37917 27.2052 6.38125 27.201 6.38021C27.1969 6.37917 27.1948 6.37708 27.1906 6.37604C26.7813 6.29167 26.4062 6.25 26.0417 6.25H23.9583C21.0865 6.25 18.75 8.58646 18.75 11.4583V12.5V15.625C18.75 18.4969 21.0865 20.8333 23.9583 20.8333H26.0417C28.9135 20.8333 31.25 18.4969 31.25 15.625V12.5V11.4583C31.25 9.01562 29.5896 6.92812 27.2135 6.38021Z" fill="black"/>
<path d="M32.2917 11.4583C31.7156 11.4583 31.25 10.9917 31.25 10.4167V8.33333C31.25 4.88646 28.4469 2.08333 25 2.08333C21.5531 2.08333 18.75 4.88646 18.75 8.33333V10.4167C18.75 10.9917 18.2844 11.4583 17.7084 11.4583C17.1323 11.4583 16.6667 10.9917 16.6667 10.4167V8.33333C16.6667 3.73854 20.4052 0 25 0C29.5948 0 33.3334 3.73854 33.3334 8.33333V10.4167C33.3334 10.9917 32.8677 11.4583 32.2917 11.4583Z" fill="black"/>
<path d="M17.7083 18.75C19.4312 18.75 20.8333 17.3479 20.8333 15.625V12.5C20.8333 10.7771 19.4312 9.375 17.7083 9.375C15.9854 9.375 14.5833 10.7771 14.5833 12.5V15.625C14.5833 17.3479 15.9854 18.75 17.7083 18.75ZM32.2916 18.75C34.0146 18.75 35.4166 17.3479 35.4166 15.625V12.5C35.4166 10.7771 34.0146 9.375 32.2916 9.375C30.5687 9.375 29.1666 10.7771 29.1666 12.5V15.625C29.1666 17.3479 30.5687 18.75 32.2916 18.75Z" fill="black"/>
<path d="M16.6667 30.4625V33.3333H33.3333V30.4625L42.8292 20.9573C43.424 20.3677 43.7531 19.5844 43.7531 18.75C43.7531 17.9156 43.424 17.1302 42.8354 16.549C41.6531 15.3542 39.5813 15.3687 38.4302 16.5344L31.8688 22.9167H18.1313L11.5854 16.549C10.4031 15.3542 8.33751 15.3625 7.17397 16.5396C6.5771 17.1302 6.24689 17.9146 6.24689 18.75C6.24689 19.5854 6.57605 20.3698 7.1698 20.9552L16.6667 30.4625Z" fill="black"/>
<path d="M34.375 44.7917C35.5256 44.7917 36.4584 43.8589 36.4584 42.7083C36.4584 41.5577 35.5256 40.625 34.375 40.625C33.2244 40.625 32.2917 41.5577 32.2917 42.7083C32.2917 43.8589 33.2244 44.7917 34.375 44.7917Z" fill="black"/>
<path d="M15.625 44.7917C16.7756 44.7917 17.7084 43.8589 17.7084 42.7083C17.7084 41.5577 16.7756 40.625 15.625 40.625C14.4744 40.625 13.5417 41.5577 13.5417 42.7083C13.5417 43.8589 14.4744 44.7917 15.625 44.7917Z" fill="black"/>
<path d="M47.8635 48.6292L43.6968 36.1292C43.5541 35.7031 43.1573 35.4167 42.7083 35.4167H7.29164C6.84268 35.4167 6.44476 35.7031 6.3031 36.1292L2.13643 48.6292C2.03018 48.9469 2.08434 49.2969 2.28018 49.5677C2.47601 49.8385 2.79059 50 3.12497 50H46.875C47.2093 50 47.5239 49.8396 47.7198 49.5677C47.9156 49.2958 47.9687 48.9458 47.8635 48.6292ZM15.625 46.875C13.3239 46.875 11.4583 45.0094 11.4583 42.7083C11.4583 40.4073 13.3239 38.5417 15.625 38.5417C17.926 38.5417 19.7916 40.4073 19.7916 42.7083C19.7916 45.0094 17.926 46.875 15.625 46.875ZM34.375 46.875C32.0739 46.875 30.2083 45.0094 30.2083 42.7083C30.2083 40.4073 32.0739 38.5417 34.375 38.5417C36.676 38.5417 38.5416 40.4073 38.5416 42.7083C38.5416 45.0094 36.676 46.875 34.375 46.875Z" fill="black"/>
</g>
<defs>
<clipPath id="clip0_4_49">
<rect width="50" height="50" fill="white"/>
</clipPath>
</defs>
</svg>
